<?xml version="1.0" encoding="UTF-8" standalone="no"?>
<!-- Created with Inkscape (http://www.inkscape.org/) -->

<svg
   version="1.1"
   id="svg1"
   width="1080"
   height="1080"
   viewBox="0 0 1080 1080"
   sodipodi:docname="police.svg"
   xml:space="preserve"
   inkscape:version="1.3 (0e150ed6c4, 2023-07-21)"
   xmlns:inkscape="http://www.inkscape.org/namespaces/inkscape"
   xmlns:sodipodi="http://sodipodi.sourceforge.net/DTD/sodipodi-0.dtd"
   xmlns="http://www.w3.org/2000/svg"
   xmlns:svg="http://www.w3.org/2000/svg"><defs
     id="defs1" /><sodipodi:namedview
     id="namedview1"
     pagecolor="#ffffff"
     bordercolor="#666666"
     borderopacity="1.0"
     inkscape:showpageshadow="2"
     inkscape:pageopacity="0.0"
     inkscape:pagecheckerboard="0"
     inkscape:deskcolor="#d1d1d1"
     inkscape:zoom="0.5"
     inkscape:cx="284"
     inkscape:cy="655"
     inkscape:window-width="1920"
     inkscape:window-height="1017"
     inkscape:window-x="1358"
     inkscape:window-y="-8"
     inkscape:window-maximized="1"
     inkscape:current-layer="g1" /><g
     inkscape:groupmode="layer"
     inkscape:label="Image"
     id="g1"><g
       id="g314"
       transform="matrix(1.892466,0,0,1.892466,-68.945951,-57.870311)"><path
         fill="#11315e"
         d="m 320.39305,40.840532 c 11.256,-1.1813 15.51,3.0344 23.536,9.8769 q 5.171,4.3949 11.018,7.839 c 10.28,6.115 22.71,9.8377 34.601,11.2293 16.628,1.946 34.421,-0.2961 48.782,-9.3642 7.946,-5.0178 13.283,-11.3428 23.346,-11.7518 8.176,-0.3324 14.932,2.5128 20.893,7.9987 3.786,3.4838 7.308,7.3032 10.912,10.9758 7.552,7.6939 15.035,15.4807 22.709,23.0517 q 14.655,14.210598 28.994,28.740398 c 4.963,4.954 10.884,9.998 14.948,15.721 q 0.505,0.716 0.957,1.466 0.452,0.751 0.847,1.533 0.395,0.781 0.732,1.59 0.337,0.809 0.614,1.64 0.276,0.831 0.491,1.68 0.215,0.85 0.367,1.712 0.152,0.863 0.24,1.735 0.089,0.871 0.113,1.747 0.039,0.879 0.017,1.759 -0.022,0.881 -0.105,1.757 -0.082,0.876 -0.225,1.745 -0.142,0.869 -0.344,1.726 -0.202,0.856 -0.463,1.697 -0.26,0.841 -0.578,1.662 -0.318,0.821 -0.691,1.618 -0.374,0.797 -0.801,1.567 c -3.082,5.58 -8.228,10.04 -12.677,14.534 -5.761,5.819 -11.721,11.529 -17.244,17.571 -21.936,23.997 -21.047,54.59 -14.721,84.281 q 4.09,19.106 10.449,37.582 c 8.961,26.73 20.914,53.038 22.15,81.603 1.48,34.195 -9.595,67.191 -32.9,92.471 -16.927,18.362 -38.517,30.622 -62.344,37.579 -10.11,2.952 -20.407,5.076 -30.585,7.751 -16.139,4.242 -31.748,10.242 -45.829,19.294 -7.818,5.026 -14.98,10.943 -21.718,17.334 -5.484,5.201 -12.803,13.766 -19.269,17.287 -3.837,2.089 -7.921,2.674 -12.226,2.846 -4.256,-0.288 -7.894,-1.04 -11.672,-3.116 -7.606,-4.179 -14.31,-12.081 -20.662,-18.048 q -4.224,-4.045 -8.834,-7.645 -4.61,-3.599 -9.559,-6.716 c -15.418,-9.708 -32.525,-16.343 -50.04,-21.156 -8.367,-2.299 -16.906,-3.923 -25.307,-6.094 -14.431,-3.731 -28.703,-9.521 -41.27,-17.592 -22.071,-14.173 -40.736,-35.199 -50.435,-59.714 -28.2333,-71.364 12.853,-112.054 25.213,-178.309 2.193,-11.761 3.599,-23.65 2.49,-35.616 -2.804,-30.258 -19.253,-44.193 -39.2222,-64.146 -5.63,-5.625 -11.2215,-11.09 -12.928,-19.179 q -0.1274,-0.613 -0.2241,-1.231 -0.0967,-0.619 -0.1625,-1.242 -0.0658,-0.622 -0.1004,-1.247 -0.0347,-0.625 -0.0382,-1.251 -0.0036,-0.626 0.0241,-1.252 0.0277,-0.625 0.0865,-1.248 0.0587,-0.624 0.1485,-1.243 0.0898,-0.62 0.2103,-1.234 0.1205,-0.614 0.2714,-1.222 0.151,-0.608 0.332,-1.207 0.181,-0.599 0.3917,-1.189 0.2106,-0.589 0.4504,-1.168 0.2397,-0.578 0.508,-1.143 0.2682,-0.566 0.5643,-1.118 0.2961,-0.551 0.6193,-1.087 0.3232,-0.537 0.6727,-1.056 c 3.1841,-4.777 8.3106,-8.87 12.4362,-12.892 l 20.523,-20.1117 29.557,-29.231298 c 6.531,-6.5635 12.943,-13.7838 20.144,-19.5957 3.214,-2.5947 6.649,-4.3966 10.728,-5.1859 6.954,-1.3456 14.415,0.1134 20.163,4.3076 3.385,2.4698 6.39,5.3975 9.874,7.7545 24.575,16.625 61.469,11.5392 85.541,-3.5098 8.558,-5.3505 15.265,-14.1778 25.51,-16.1505 z"
         id="path2" /><path
         fill="#1c7adb"
         d="m 322.72305,51.122632 c 7.36,-0.5051 12.738,6.2517 17.926,10.5188 3.329,2.7376 6.948,5.397 10.763,7.4192 q 2.424,1.3065 4.913,2.4829 2.49,1.1764 5.038,2.2195 2.548,1.043 5.148,1.9498 2.6,0.9067 5.244,1.6746 2.644,0.7679 5.326,1.3948 2.681,0.6269 5.391,1.1111 2.711,0.4842 5.443,0.8242 2.732,0.3401 5.479,0.5351 c 14.101,1.0044 28.207,-0.4744 41.223,-6.3234 q 5.645,-2.5984 10.848,-5.9951 c 5.69,-3.7917 10.651,-9.3523 18.029,-9.1759 q 0.617,0.01 1.232,0.0666 0.615,0.0567 1.224,0.1599 0.609,0.1031 1.208,0.2522 0.599,0.1491 1.185,0.3433 0.586,0.1941 1.156,0.4322 0.57,0.238 1.12,0.5187 0.55,0.2806 1.077,0.6021 0.527,0.3216 1.028,0.6822 c 3.813,2.7654 7.059,6.4525 10.393,9.7644 l 14.437,14.282 c 8.847,8.7759 17.415,17.829898 26.265,26.597498 7.49,7.42 15.319,14.574 22.631,22.162 5.385,5.587 8.415,12.111 5.451,19.811 -2.374,6.168 -20.003,21.89 -25.573,27.604 -3.42,3.508 -6.693,7.205 -9.531,11.203 -7.493,10.558 -11.465,23.518 -13.308,36.23 -5.872,40.495 11.376,80.481 23.85,118.09 6.084,18.345 11.574,36.636 11.246,56.17 q -0.031,2.218 -0.147,4.432 -0.116,2.215 -0.317,4.424 -0.2,2.208 -0.485,4.408 -0.285,2.199 -0.653,4.386 -0.369,2.187 -0.821,4.359 -0.451,2.171 -0.986,4.323 -0.534,2.153 -1.15,4.283 -0.617,2.131 -1.314,4.236 -0.697,2.105 -1.474,4.182 -0.777,2.078 -1.633,4.124 -0.856,2.046 -1.789,4.057 -0.934,2.012 -1.943,3.987 -1.01,1.974 -2.094,3.909 -1.085,1.935 -2.242,3.827 -1.157,1.891 -2.386,3.738 -1.229,1.846 -2.527,3.644 -1.299,1.798 -2.665,3.545 -1.366,1.747 -2.798,3.441 -1.432,1.693 -2.927,3.331 -1.496,1.638 -3.053,3.217 -1.557,1.579 -3.173,3.098 -1.616,1.519 -3.289,2.975 -1.673,1.455 -3.401,2.846 -1.727,1.391 -3.506,2.715 -1.78,1.324 -3.608,2.579 -1.829,1.255 -3.704,2.439 -1.875,1.184 -3.794,2.296 -1.919,1.112 -3.879,2.149 -1.96,1.038 -3.958,2 -1.999,0.962 -4.032,1.847 -2.034,0.885 -4.1,1.691 -2.066,0.807 -4.161,1.534 c -13.654,4.805 -27.974,7.341 -41.919,11.141 q -7.092,1.947 -13.993,4.487 -6.902,2.54 -13.563,5.656 c -12.468,5.848 -24.054,12.583 -34.489,21.64 -7.77,6.742 -14.809,14.208 -22.222,21.318 -3.6,3.453 -6.497,5.201 -11.604,5.11 -6.679,-1.979 -14.639,-11.89 -19.665,-16.79 q -5.888,-5.75 -12.173,-11.064 c -5.624,-4.71 -11.989,-8.829 -18.337,-12.5 -16.351,-9.459 -34.242,-15.437 -52.529,-19.896 -12.131,-2.959 -24.482,-5.184 -36.037,-10.113 -23.503,-10.026 -44.491,-27.035 -57.643,-49.096 -12.921,-21.676 -19.132,-48.516 -15.962,-73.634 1.686,-13.359 5.777,-26.074 10.02,-38.796 11.14,-33.405 25.567,-65.69 25.752,-101.564 0.034,-6.483 -0.21,-13.043 -1.266,-19.448 -4.726,-28.668 -21.832,-43.623 -41.075,-62.894 -3.358,-3.362 -8.1617,-7.309 -9.857,-11.834 -1.4676,-3.918 -0.9849,-8.488 0.8758,-12.194 0.8764,-1.746 2.192,-3.284 3.5332,-4.691 4.909,-5.151 10.456,-9.829 15.56,-14.813 l 29.622,-29.330998 c 6.354,-6.1821 12.833,-12.2457 19.146,-18.4663 3.706,-3.6519 7.194,-7.6618 11.144,-11.0416 2.216,-1.8958 4.626,-3.5817 7.463,-4.3971 8.145,-2.3412 13.282,3.3875 18.986,7.9688 q 3.484,2.7538 7.348,4.9434 c 27.215,15.4871 66.245,10.6346 92.014,-5.6785 7.251,-4.5902 15.206,-13.4796 23.017,-15.6514 z"
         id="path3" /><path
         fill="#11315e"
         d="m 323.43405,66.602032 c 1.241,0.0441 14.173,10.584 17.059,12.3854 11.534,7.1993 23.895,12.1477 37.107,15.2843 23.03,5.4672 48.196,2.4592 68.85,-9.2705 q 4.272,-2.4106 8.235,-5.3013 c 2.619,-1.9482 5.12,-4.1566 7.914,-5.8471 0.106,-0.0642 0.214,-0.1261 0.321,-0.1891 5.241,3.3523 9.66,8.9383 14.063,13.3383 q 11.948,11.776 23.744,23.704298 8.998,9.154 18.138,18.166 c 5.03,4.879 10.266,9.605 15.096,14.682 1.586,1.667 2.973,3.364 4.23,5.289 0.454,3.784 -3.827,7.901 -6.302,10.373 -7.155,7.146 -14.796,14.032 -21.368,21.729 -15.773,18.474 -22.302,41.305 -22.708,65.23 -0.47,27.75 7.399,55.415 16.2,81.48 11.566,34.255 25.174,61.233 17.008,98.384 -3.714,16.894 -11.171,32.233 -22.789,45.101 -5.993,6.638 -12.685,12.288 -20.147,17.199 -21.198,13.952 -40.568,16.226 -64.178,22.865 -11.325,3.184 -22.712,7.485 -33.246,12.74 -15.807,7.886 -29.733,18.333 -42.772,30.182 -4.582,4.164 -8.59,9.712 -13.798,13.054 -5.497,-3.615 -9.955,-9.729 -14.716,-14.31 -10.111,-9.725 -21.82,-18.508 -34.137,-25.239 -13.514,-7.384 -27.233,-12.367 -42.062,-16.487 -32.652,-9.071 -57.999,-12.013 -81.663,-39.593 q -1.727,-1.988 -3.355,-4.059 -1.628,-2.071 -3.153,-4.218 -1.525,-2.148 -2.943,-4.367 -1.418,-2.22 -2.726,-4.506 -1.307,-2.286 -2.502,-4.634 -1.194,-2.347 -2.273,-4.75 -1.078,-2.403 -2.038,-4.856 -0.959,-2.453 -1.798,-4.95 c -13.695,-40.319 1.121,-71.062 14.352,-108.654 7.292,-20.718 13.676,-42.014 15.309,-64.021 2.114,-28.487 -2.533,-59.002 -22.183,-81.025 -5.573,-6.246 -11.791,-11.955 -17.8,-17.778 -2.733,-2.649 -5.616,-5.252 -8.084,-8.15 -1.389,-1.632 -3.377,-4.361 -2.929,-6.66 0.288,-1.486 2.904,-4.04 3.973,-5.158 3.527,-3.69 7.332,-7.16 10.986,-10.727 l 18.327,-17.935 22.802,-22.427798 c 5.663,-5.4608 13.737,-14.8308 19.703,-19.1549 4.218,2.9055 8.094,6.2719 12.365,9.1135 11.152,7.4179 24.735,11.8691 37.958,13.5784 24.141,3.1206 49.15,-3.2022 69.66,-16.0722 6.494,-4.0748 12.209,-8.8823 18.27,-13.5383 z"
         id="path4" /><path
         fill="#e6eff6"
         d="m 370.79505,510.43533 c 2.507,0.805 6.412,0.097 9.017,-0.122 -2.673,1.673 -6.063,2.907 -8.945,4.24 z"
         id="path5" /><path
         fill="#fdfdfd"
         d="m 212.43705,432.40233 c 2.599,-0.194 4.92,-0.001 7.231,1.323 q 0.484,0.281 0.937,0.608 0.453,0.328 0.872,0.699 0.418,0.371 0.798,0.781 0.38,0.411 0.717,0.857 0.337,0.446 0.629,0.924 0.291,0.477 0.534,0.981 0.242,0.504 0.433,1.03 0.192,0.525 0.33,1.067 0.137,0.55 0.217,1.112 0.079,0.561 0.101,1.127 0.023,0.567 -0.013,1.133 -0.036,0.566 -0.13,1.125 -0.093,0.559 -0.243,1.106 -0.15,0.546 -0.356,1.075 -0.205,0.528 -0.463,1.033 -0.258,0.505 -0.566,0.981 c -1.751,2.699 -4.201,4.103 -7.269,4.814 -2.532,0.068 -4.594,-0.111 -6.886,-1.359 q -0.509,-0.274 -0.988,-0.596 -0.479,-0.322 -0.924,-0.69 -0.445,-0.368 -0.852,-0.778 -0.406,-0.41 -0.771,-0.858 -0.364,-0.448 -0.683,-0.93 -0.318,-0.482 -0.588,-0.992 -0.27,-0.511 -0.488,-1.046 -0.218,-0.534 -0.382,-1.088 -0.144,-0.485 -0.239,-0.981 -0.095,-0.497 -0.139,-1.001 -0.044,-0.503 -0.037,-1.009 0.007,-0.506 0.065,-1.008 0.057,-0.502 0.166,-0.996 0.108,-0.494 0.265,-0.975 0.157,-0.48 0.362,-0.943 0.205,-0.462 0.456,-0.901 c 1.75,-3.064 4.628,-4.669 7.904,-5.625 z"
         id="path6" /><path
         fill="#fdfdfd"
         d="m 429.50705,429.85833 c 2.315,-0.31 4.455,-0.255 6.645,0.636 q 0.519,0.208 1.013,0.469 0.495,0.26 0.96,0.57 0.465,0.31 0.896,0.666 0.431,0.357 0.822,0.756 0.392,0.398 0.741,0.835 0.348,0.437 0.65,0.908 0.302,0.47 0.553,0.969 0.252,0.5 0.451,1.022 c 1.06,2.803 1.006,6.084 -0.289,8.8 -1.522,3.192 -4.326,5.015 -7.552,6.176 -2.143,0.328 -3.937,0.331 -6.005,-0.416 q -0.518,-0.192 -1.015,-0.434 -0.496,-0.242 -0.966,-0.531 -0.47,-0.29 -0.909,-0.625 -0.44,-0.335 -0.844,-0.712 -0.404,-0.377 -0.768,-0.791 -0.365,-0.415 -0.687,-0.864 -0.322,-0.449 -0.598,-0.927 -0.276,-0.479 -0.503,-0.982 c -1.233,-2.714 -1.381,-5.751 -0.278,-8.535 1.437,-3.628 4.209,-5.581 7.683,-6.99 z"
         id="path7" /><path
         fill="#fdfdfd"
         d="m 240.63605,468.94033 c 5.226,2.558 10.697,4.58 15.904,7.185 0.243,5.8 -1.164,12.74 2.389,17.779 3.339,4.735 8.662,4.769 13.777,5.733 2.927,0.552 4.375,1.494 6.043,3.932 0.431,3.788 0.336,7.629 0.304,11.434 -12.154,-6.942 -24.996,-11.944 -38.369,-15.987 0.517,-9.997 0.135,-20.072 -0.048,-30.076 z"
         id="path8" /><path
         fill="#fdfdfd"
         d="m 383.99405,477.62133 c 7.031,-2.402 14.625,-5.073 21.193,-8.553 q -0.066,15.427 0.27,30.85 -7.934,2.465 -15.534,5.822 c -3.251,1.452 -6.747,3.525 -10.111,4.573 -2.605,0.219 -6.51,0.927 -9.017,0.122 -0.045,-3.944 -0.258,-8.077 0.526,-11.961 0.068,-0.069 0.135,-0.14 0.205,-0.207 5.616,-5.401 11.986,-3.145 12.406,-13.326 0.101,-2.434 0.066,-4.883 0.062,-7.32 z"
         id="path9" /><path
         fill="#fdfdfd"
         d="m 377.09805,479.20733 c 0.37,-0.051 0.6,0.031 0.957,0.121 0.466,0.948 0.45,1.918 0.453,2.954 0.028,8.492 -6.089,6.955 -10.852,11.939 -0.895,0.936 -1.634,2.04 -2.046,3.274 -1.613,4.839 -0.818,14.857 -0.802,20.185 -5.964,3.432 -11.682,7.314 -17.374,11.174 l -0.798,0.322 c -0.554,-0.626 -0.21,-38.606 -0.12,-42.998 10.337,-1.385 20.568,-4.133 30.582,-6.971 z"
         id="path10" /><path
         fill="#fdfdfd"
         d="m 225.56605,460.18233 c 0.499,0.03 8.447,5.351 9.693,6.127 q 0.101,15.597 0.013,31.194 l -25.668,-6.315 c -5.825,-1.503 -11.4,-3.346 -17.047,-5.414 7.453,-7.442 15.161,-14.637 22.647,-22.052 3.712,-0.411 7.095,-1.798 10.362,-3.54 z"
         id="path11" /><path
         fill="#fdfdfd"
         d="m 421.15705,460.08033 c 0.038,-0.002 0.075,-0.006 0.113,-0.004 2.489,0.101 5.547,1.346 7.615,2.686 3.797,2.459 7.126,6.365 10.34,9.53 q 7.164,7.072 14.454,14.014 -8.562,2.966 -17.294,5.385 -12.674,3.49 -25.406,6.758 c -0.272,-10.651 -0.121,-21.417 0.086,-32.069 3.422,-2.029 6.789,-4.082 10.092,-6.3 z"
         id="path12" /><path
         fill="#fdfdfd"
         d="m 450.15105,432.80633 c 3.017,1.492 9.817,9.59 12.785,12.507 l 21.103,20.48 q -4.275,3.972 -8.931,7.489 -4.656,3.517 -9.645,6.544 c -1.961,1.231 -4.003,2.362 -6,3.538 -8.069,-7.022 -15.321,-14.962 -23.333,-22.044 5.424,-2.038 10.224,-5.554 13.075,-10.685 3.224,-5.801 2.701,-11.684 0.946,-17.829 z"
         id="path13" /><path
         fill="#fdfdfd"
         d="m 262.95205,478.07633 c 5.659,1.247 11.208,3.019 16.862,4.313 8.149,1.865 16.358,3.039 24.64,4.098 l -0.043,45.396 c -2.418,-1.214 -4.928,-3.625 -7.121,-5.259 q -5.882,-4.471 -12.167,-8.354 c 0.061,-3.939 0.231,-7.931 0.083,-11.865 -0.608,-16.139 -15.155,-10.276 -20.59,-15.674 -2.737,-2.719 -1.776,-9.078 -1.664,-12.655 z"
         id="path14" /><path
         fill="#fdfdfd"
         d="m 190.18405,433.45933 c 1.74,0.461 3.335,2.132 4.675,3.289 -0.799,4.398 -1.218,8.637 0.183,12.974 2.05,6.346 6.532,10.044 12.304,12.948 -2.469,2.842 -5.327,5.427 -8.017,8.064 q -6.113,6.098 -12.448,11.964 l -5.737,-3.369 c -7.972,-4.967 -14.861,-11.066 -21.28,-17.896 5.559,-5.656 11.776,-10.861 17.615,-16.241 4.202,-3.872 8.215,-8.214 12.705,-11.733 z"
         id="path15" /><path
         fill="#fdfdfd"
         d="m 339.35205,486.82933 0.742,-0.079 c 0.109,0.127 0.251,0.231 0.326,0.381 0.272,0.541 0.114,41.647 0.218,46.899 -5.936,4.906 -11.644,9.951 -17.093,15.396 l -6.379,-6.341 q -3.59,-3.464 -7.302,-6.798 c 0.392,-6.003 0.216,-12.129 0.235,-18.146 l 0.07,-31.117 c 9.779,0.41 19.411,0.316 29.183,-0.195 z"
         id="path16" /><path
         fill="#fdfdfd"
         d="m 323.81805,80.722232 c 2.773,1.5337 6.596,5.1249 9.505,7.086 7.857,5.2974 16.233,9.2867 24.979,12.872398 -2.767,2.2625 -5.442,4.8656 -7.987,7.3777 -1.74,1.718 -4.064,4.042 -4.784,6.413 -1.17,3.855 -0.559,33.762 -0.599,40.318 -1.204,0.895 -2.317,1.857 -3.177,3.1 -1.124,1.624 -1.813,3.514 -1.42,5.501 0.385,1.954 1.675,3.65 3.307,4.749 q 0.371,0.248 0.765,0.456 0.394,0.208 0.808,0.374 0.414,0.166 0.843,0.288 0.428,0.122 0.867,0.199 0.44,0.077 0.884,0.108 0.445,0.032 0.89,0.016 0.446,-0.015 0.888,-0.076 0.441,-0.061 0.874,-0.168 c 1.882,-0.449 3.54,-1.509 4.52,-3.204 1.009,-1.747 1.31,-4.128 0.757,-6.069 -0.698,-2.454 -2.578,-3.999 -4.716,-5.19 0.103,-12.993 -0.418,-26.24 0.371,-39.189 4.062,-4.814 9.094,-8.68 13.735,-12.9124 8.246,2.8862 18.002,4.9154 26.742,5.2364 -5.2,4.419 -11.741,10.703 -16.078,15.903 -0.612,4.076 -0.382,8.375 -0.384,12.493 l 0.04,18.963 c -1.739,0.564 -2.73,1.351 -3.844,2.811 -1.209,1.584 -1.679,3.396 -1.353,5.368 0.392,2.371 1.854,4.454 3.828,5.792 1.97,1.336 4.482,1.906 6.818,1.36 1.868,-0.436 3.33,-1.578 4.306,-3.219 1.14,-1.916 1.742,-4.347 1.077,-6.522 -0.732,-2.389 -2.458,-4.199 -4.609,-5.364 q -0.115,-14.84 0.094,-29.678 c 6.034,-5.713 11.829,-11.908 18.17,-17.263 5.182,-0.229 10.419,-0.352 15.569,-0.997 17.486,-2.1866 33.509,-9.223698 47.457,-19.891598 11.912,13.280698 24.803,25.702598 37.485,38.240598 8.094,8.002 15.915,16.283 24.185,24.103 -12.343,12.39 -26.488,24.762 -35.147,39.944 -21.897,38.394 -14.839,86.572 -2.524,126.822 4.573,14.947 10.377,29.444 15.21,44.29 1.676,5.147 3.045,10.408 4.48,15.627 -10.559,-11.239 -22.42,-21.24 -32.95,-32.499 0.31,-1.144 0.639,-2.294 0.67,-3.487 0.065,-2.573 -0.761,-4.848 -2.586,-6.676 -1.594,-1.596 -3.592,-2.671 -5.887,-2.66 -2.382,0.012 -4.622,1.194 -6.202,2.938 q -0.312,0.341 -0.589,0.712 -0.276,0.372 -0.513,0.769 -0.237,0.397 -0.432,0.817 -0.196,0.419 -0.347,0.856 -0.152,0.437 -0.258,0.888 -0.107,0.45 -0.167,0.909 -0.06,0.459 -0.073,0.921 -0.013,0.463 0.021,0.924 c 0.139,2.182 0.956,4.366 2.702,5.76 2.815,2.247 6.32,1.909 9.646,1.52 8.55,8.973 17.697,17.507 26.58,26.156 4.392,4.278 9.142,8.48 13.039,13.211 q 0.528,3.718 0.792,7.463 0.264,3.746 0.262,7.501 -0.002,3.755 -0.27,7.5 -0.268,3.746 -0.801,7.463 c -15.513,-15.143 -31.496,-29.864 -46.469,-45.551 0.351,-1.621 0.58,-3.177 0.368,-4.837 -0.289,-2.272 -1.312,-4.07 -3.128,-5.469 -1.907,-1.467 -4.284,-2.344 -6.704,-1.985 -2.41,0.356 -4.509,1.869 -5.843,3.876 -1.359,2.044 -1.764,4.49 -1.221,6.875 0.472,2.068 1.617,3.972 3.438,5.11 2.755,1.722 6.116,1.535 9.134,0.786 9.823,9.185 18.994,19.023 28.626,28.399 6.664,6.488 14.204,12.589 20.31,19.565 -3.545,15.072 -9.649,25.263 -19.472,36.994 -5.066,-5.728 -10.816,-11.043 -16.195,-16.487 -7.535,-7.626 -15.038,-15.699 -23.265,-22.579 -1.384,1.102 -2.532,2.276 -3.718,3.581 -2.969,-2.319 -6.216,-4.041 -9.954,-4.719 q -0.466,-0.083 -0.936,-0.143 -0.469,-0.06 -0.942,-0.096 -0.472,-0.036 -0.945,-0.049 -0.473,-0.012 -0.947,-10e-4 -0.473,0.012 -0.945,0.047 -0.472,0.035 -0.942,0.094 -0.47,0.059 -0.936,0.141 -0.467,0.082 -0.928,0.188 -0.462,0.106 -0.917,0.234 -0.456,0.129 -0.905,0.281 -0.448,0.151 -0.889,0.325 -0.44,0.173 -0.871,0.369 -0.431,0.196 -0.852,0.413 -0.421,0.217 -0.83,0.455 -0.41,0.238 -0.807,0.496 -0.397,0.258 -0.78,0.536 c -4.35,3.087 -7.598,7.827 -8.449,13.135 -0.949,5.911 0.824,10.826 4.216,15.597 -5.719,3.874 -12.185,6.859 -18.507,9.591 -20.584,8.898 -41.295,13.584 -63.601,15.485 q -2.691,0.183 -5.387,0.285 -2.695,0.102 -5.392,0.123 -2.697,0.022 -5.394,-0.038 -2.697,-0.059 -5.39,-0.199 -2.694,-0.14 -5.382,-0.361 -2.689,-0.22 -5.369,-0.521 -2.68,-0.301 -5.351,-0.681 -2.67,-0.381 -5.328,-0.842 -2.657,-0.46 -5.3,-1 -2.643,-0.54 -5.268,-1.159 -2.626,-0.619 -5.231,-1.316 -2.606,-0.697 -5.19,-1.471 -2.583,-0.775 -5.143,-1.626 -2.559,-0.852 -5.092,-1.78 -2.533,-0.927 -5.036,-1.93 -2.504,-1.003 -4.977,-2.081 c -6.45,-2.85 -13.454,-6.252 -19.016,-10.608 q 0.845,-1.515 1.427,-3.149 0.582,-1.634 0.884,-3.342 c 0.954,-5.2 0.033,-10.558 -3.003,-14.933 -2.962,-4.267 -7.799,-7.259 -12.898,-8.152 -6.738,-1.179 -12.063,0.903 -17.519,4.701 -2.755,-1.886 -5.225,-4.099 -7.683,-6.345 -11.781,11.908 -24.161,23.209 -35.963,35.086 -8.318,-9.967 -14.748,-23.262 -16.712,-36.201 l 49.739,-48.919 c 1.014,0.298 2.009,0.539 3.068,0.604 1.977,0.121 3.852,-0.364 5.313,-1.747 1.573,-1.488 2.647,-3.632 2.645,-5.817 -0.001,-2.157 -0.997,-4.214 -2.543,-5.693 q -0.32,-0.307 -0.671,-0.578 -0.35,-0.271 -0.728,-0.504 -0.377,-0.232 -0.777,-0.424 -0.4,-0.192 -0.817,-0.34 -0.418,-0.149 -0.849,-0.253 -0.431,-0.103 -0.87,-0.161 -0.44,-0.058 -0.883,-0.069 -0.443,-0.011 -0.885,0.025 c -1.92,0.144 -3.677,0.913 -4.932,2.397 -2.046,2.417 -1.895,5.45 -1.682,8.39 -9.45,9.493 -19.229,18.658 -28.767,28.062 -6.048,5.962 -11.768,12.297 -18.082,17.981 -0.31,-4.172 -0.611,-8.324 -0.604,-12.51 0.008,-4.422 -0.312,-10.615 1.565,-14.634 1.514,-3.243 21.616,-21.749 25.613,-25.721 4.727,-4.697 9.282,-9.565 14.005,-14.267 0.961,0.162 1.925,0.313 2.903,0.309 2.141,-0.008 4.54,-0.813 6.03,-2.403 1.498,-1.598 2.07,-3.875 1.952,-6.021 -0.13,-2.392 -1.208,-4.652 -3.076,-6.174 -1.467,-1.196 -3.337,-1.832 -5.234,-1.619 -2.325,0.26 -4.666,1.837 -6.047,3.687 -1.78,2.385 -1.51,4.897 -1.156,7.66 -10.36,11.709 -22.282,22.049 -32.89,33.55 3.102,-12.616 7.873,-24.888 12.2,-37.13 8.991,-25.438 16.958,-50.805 18.683,-77.903 1.968,-30.897 -4.252,-61.378 -24.797,-85.445 -7.522,-8.81 -16.476,-16.352 -24.122,-25.045 7.715,-8.507 16.662,-16.199 24.942,-24.172 12.818,-12.343 25.403,-24.9834 38.063,-37.493398 16.782,13.874598 38.169,19.401398 59.497,20.800398 5.911,6.523 12.645,12.324 18.86,18.549 0.044,9.332 -0.056,18.693 0.262,28.018 -1.526,0.762 -2.857,1.752 -3.878,3.136 -1.233,1.672 -1.499,4.082 -1.098,6.084 0.387,1.933 1.501,3.531 3.162,4.591 q 0.367,0.233 0.756,0.427 0.389,0.195 0.796,0.349 0.406,0.155 0.826,0.267 0.42,0.113 0.849,0.183 0.43,0.069 0.864,0.096 0.434,0.026 0.868,0.008 0.435,-0.017 0.865,-0.078 0.431,-0.062 0.853,-0.166 c 2.099,-0.522 4.039,-1.776 5.138,-3.67 1.08,-1.86 1.107,-4.036 0.499,-6.057 -0.732,-2.436 -2.34,-3.705 -4.51,-4.866 l 0.076,-25.813 c -0.009,-1.605 0.065,-3.649 -0.645,-5.11 -1.335,-2.745 -13.217,-13.406 -16.445,-16.594 10.084,-0.605 19.669,-2.8369 29.439,-5.2405 4.661,4.1595 10.042,7.9405 14.02,12.7705 0.506,5.332 0.393,10.716 0.385,16.065 q 0.008,10.925 -0.153,21.848 c -1.017,0.598 -1.977,1.269 -2.824,2.095 -1.353,1.32 -2.441,3.037 -2.411,4.985 0.031,1.991 1.193,3.876 2.649,5.164 q 0.339,0.301 0.706,0.565 0.368,0.265 0.761,0.49 0.393,0.226 0.807,0.409 0.414,0.184 0.845,0.325 0.43,0.14 0.873,0.236 0.443,0.095 0.893,0.145 0.45,0.049 0.903,0.052 0.453,0.003 0.904,-0.04 c 1.927,-0.187 3.817,-0.996 5.031,-2.548 1.274,-1.63 1.739,-4.037 1.417,-6.058 -0.419,-2.633 -2.225,-4.269 -4.265,-5.779 -0.454,-12.123 0.882,-24.472 0.033,-36.556 -0.073,-1.03 -0.131,-2.256 -0.589,-3.19 -2.572,-5.252 -9.253,-9.7869 -13.671,-13.5843 4.224,-1.995098 8.563,-3.765898 12.713,-5.913998 7.706,-3.9881 14.826,-8.8954 21.68,-14.1878 z"
         id="path17"
         style="fill:#ffffff;fill-opacity:1" /><path
         fill="#3698ee"
         d="m 253.98305,223.81733 c 5.306,5.466 10.528,10.929 16.243,15.98 l 1.23,1.845 c -1.579,1.396 -3.191,2.769 -4.724,4.214 -0.657,-0.878 -1.355,-1.442 -2.23,-2.096 -5.171,-4.968 -10.057,-10.287 -15.185,-15.314 q 2.371,-2.276 4.666,-4.629 z"
         id="path24" /><path
         fill="#3698ee"
         d="m 269.63905,211.59633 c 4.803,5.792 8.577,13.174 12.824,19.487 0.346,0.669 0.686,1.316 1.112,1.939 -1.947,1.482 -4.159,3.093 -6.328,4.232 q -0.669,-1.483 -1.294,-2.984 c -3.756,-6.417 -8.175,-12.442 -11.721,-18.978 1.851,-1.13 3.621,-2.461 5.407,-3.696 z"
         id="path25" /><path
         fill="#11315e"
         d="m 198.75105,102.68903 c 0.473,-0.0133 0.449,-0.0233 1.011,0.0248 2.338,0.2003 4.787,1.1815 6.22,3.1041 2.068,2.7744 1.586,5.9114 1.133,9.0874 3.862,3.649 7.607,7.484 11.334,11.271 3.446,-0.773 6.93,-1.667 10.352,-0.236 q 0.419,0.173 0.818,0.388 0.399,0.215 0.775,0.469 0.375,0.254 0.723,0.545 0.348,0.291 0.664,0.616 0.317,0.324 0.599,0.679 0.282,0.355 0.527,0.737 0.245,0.381 0.45,0.786 0.205,0.404 0.368,0.827 0.159,0.427 0.276,0.867 0.116,0.44 0.189,0.89 0.073,0.449 0.101,0.904 0.028,0.454 0.012,0.909 -0.017,0.455 -0.078,0.906 -0.061,0.452 -0.166,0.895 -0.105,0.443 -0.253,0.873 -0.148,0.431 -0.338,0.845 c -1.375,3.031 -3.937,4.895 -6.958,6.069 -0.973,0.116 -1.953,0.233 -2.934,0.161 -2.733,-0.204 -5.242,-1.282 -6.962,-3.469 -2.407,-3.06 -2.35,-6.657 -1.886,-10.304 -3.928,-3.675 -7.624,-7.625 -11.458,-11.404 -0.331,0.134 -0.462,0.196 -0.781,0.296 -2.47,0.777 -5.288,0.559 -7.531,-0.758 q -0.386,-0.232 -0.746,-0.502 -0.36,-0.271 -0.69,-0.577 -0.331,-0.307 -0.627,-0.645 -0.297,-0.339 -0.557,-0.707 -0.26,-0.368 -0.481,-0.76 -0.221,-0.393 -0.399,-0.806 -0.179,-0.414 -0.315,-0.843 -0.135,-0.43 -0.225,-0.871 c -0.464,-2.183 -0.104,-4.49 1.132,-6.3647 1.59,-2.412 3.979,-3.3522 6.701,-3.9026 z"
         id="path26" /><path
         fill="#e6eff6"
         d="m 224.19405,130.71933 c 0.199,0.044 0.399,0.086 0.597,0.134 1.134,0.275 2.238,0.879 2.798,1.946 0.455,0.866 0.477,1.847 0.144,2.761 -0.568,1.56 -1.68,2.285 -3.131,2.94 -1.241,-0.215 -2.613,-0.716 -3.323,-1.845 -0.477,-0.759 -0.56,-1.408 -0.398,-2.281 0.341,-1.826 1.87,-2.737 3.313,-3.655 z"
         id="path27" /><path
         fill="#11315e"
         d="m 448.12505,100.20543 c 1.278,-0.1121 2.543,-0.232498 3.806,0.0584 2.144,0.4933 4.031,1.7204 5.149,3.6401 1.176,2.0205 1.315,4.4574 0.614,6.6644 -0.734,2.309 -2.347,4.314 -4.53,5.395 -2.508,1.241 -5.087,0.97 -7.645,0.054 -4.19,4.469 -8.983,8.381 -13.212,12.817 q 0.12,0.875 0.181,1.756 c 0.267,3.662 -0.195,7.505 -2.75,10.345 -2.203,2.448 -4.992,3.267 -8.168,3.402 q -1.061,-0.165 -2.112,-0.385 c -2.809,-0.61 -5.379,-2.325 -6.9,-4.778 -1.524,-2.46 -1.879,-5.536 -1.088,-8.306 q 0.141,-0.491 0.33,-0.966 0.19,-0.475 0.425,-0.929 0.235,-0.454 0.514,-0.882 0.279,-0.428 0.599,-0.827 0.32,-0.398 0.678,-0.763 0.358,-0.365 0.751,-0.693 0.392,-0.328 0.815,-0.615 0.423,-0.287 0.872,-0.531 c 3.315,-1.783 7.184,-1.473 10.683,-0.476 5.263,-3.845 9.893,-8.711 14.57,-13.239 -0.084,-1.819 -0.226,-3.577 0.451,-5.311 1.083,-2.7785 3.355,-4.2479 5.967,-5.4309 z"
         id="path28" /><path
         fill="#fdfdfd"
         d="m 420.52805,129.19733 c 0.623,-0.027 1.271,-0.064 1.892,0.006 1.359,0.154 2.822,1.161 3.555,2.294 0.631,0.976 0.785,2.17 0.467,3.285 -0.45,1.577 -1.656,2.329 -2.991,3.121 -0.838,0.094 -1.766,0.167 -2.602,0 -1.216,-0.242 -2.414,-1.093 -3.066,-2.142 -0.617,-0.991 -0.747,-2.137 -0.442,-3.253 0.467,-1.711 1.728,-2.486 3.187,-3.311 z"
         id="path29" /><path
         fill="#11315e"
         d="m 319.26805,92.731332 c 1.728,-0.1073 3.478,-8e-4 5.137,0.5288 2.621,0.8369 4.806,2.6132 5.976,5.1257 1.163,2.496498 1.215,5.445198 0.249,8.012898 -1.236,3.2826 -3.643,5.1996 -6.719,6.6226 -0.37,9.227 -0.143,18.557 -0.213,27.797 2.232,1.179 3.926,2.836 4.731,5.286 0.601,1.832 0.561,3.874 -0.32,5.609 -1.21,2.384 -3.165,3.35 -5.599,4.16 -1.275,0.125 -2.566,0.184 -3.821,-0.134 q -0.377,-0.095 -0.743,-0.227 -0.365,-0.132 -0.716,-0.3 -0.35,-0.169 -0.682,-0.371 -0.332,-0.202 -0.642,-0.437 -0.31,-0.234 -0.595,-0.499 -0.285,-0.264 -0.542,-0.556 -0.257,-0.291 -0.484,-0.607 -0.226,-0.316 -0.42,-0.653 -0.189,-0.338 -0.344,-0.694 -0.154,-0.355 -0.271,-0.724 -0.118,-0.37 -0.197,-0.749 -0.08,-0.379 -0.12,-0.765 -0.041,-0.385 -0.042,-0.772 -0.001,-0.388 0.036,-0.774 0.038,-0.385 0.115,-0.765 0.077,-0.38 0.192,-0.75 c 0.763,-2.468 2.477,-4.118 4.675,-5.355 q -0.079,-13.841 -0.011,-27.682 c -0.785,-0.309 -1.586,-0.617 -2.317,-1.042 -2.666,-1.551 -4.619,-4.342 -5.261,-7.3447 q -0.109,-0.4927 -0.167,-0.994 -0.059,-0.5012 -0.065,-1.0058 -0.007,-0.5046 0.038,-1.0072 0.046,-0.5027 0.142,-0.998 0.096,-0.4954 0.243,-0.978198 0.147,-0.4829 0.342,-0.9482 0.195,-0.4654 0.437,-0.9082 0.242,-0.4429 0.528,-0.8587 c 1.829,-2.6192 4.409,-3.6887 7.45,-4.243 z"
         id="path30" /><path
         fill="#fdfdfd"
         d="m 319.50705,98.248432 c 0.704,-0.0137 1.437,-0.0518 2.136,0.043 1.17,0.1588 2.341,1.1107 2.942,2.095098 q 0.233,0.3865 0.383,0.8117 0.151,0.4252 0.214,0.872 0.062,0.4469 0.034,0.8971 -0.028,0.4503 -0.146,0.8858 c -0.479,1.8009 -1.567,2.6221 -3.113,3.5192 -0.57,-0.006 -1.164,-0.004 -1.727,-0.099 -1.181,-0.201 -2.401,-1.0104 -3.097,-1.9734 -0.731,-1.0124 -0.936,-2.2111 -0.679,-3.4285 0.383,-1.8161 1.575,-2.670098 3.053,-3.622998 z"
         id="path31" /><path
         fill="#3698ee"
         d="m 253.53905,258.99733 c -5.5,-3.132 -31.313,-16.271 -33.374,-19.689 -0.669,-1.11 -0.625,-2.398 -0.261,-3.603 1.026,-3.398 4.062,-6.638 6.305,-9.345 10.164,-12.262 22.211,-23.533 36.213,-31.274 1.771,-0.979 5.576,-3.212 7.59,-2.331 1.92,0.84 2.579,3.716 3.106,5.544 -4.018,2.621 -8.504,4.65 -12.603,7.2 -11.935,7.427 -24.211,18.347 -31.186,30.575 3.652,2.948 7.829,5.16 11.886,7.49 q 7.937,4.6 15.996,8.984 1.296,0.743 2.603,1.466 c -1.165,1.767 -2.555,4.499 -4.153,5.882 -0.699,-0.321 -1.41,-0.609 -2.122,-0.899 z"
         id="path32" /><path
         fill="#3698ee"
         d="m 292.19605,224.66033 c -1.885,-5.269 -9.844,-32.376 -8.923,-36.208 0.304,-1.262 1.247,-2.216 2.314,-2.889 3.127,-1.973 7.807,-2.713 11.406,-3.386 15.727,-2.941 31.701,-3.509 47.419,-0.177 4.407,0.934 14.024,2.354 16.39,6.421 0.791,1.361 0.417,3.388 0.152,4.865 -0.586,3.274 -1.83,6.605 -2.806,9.792 l -6.1,19.563 c -0.804,1.562 -1.128,3.311 -1.933,4.851 -2.31,-0.489 -4.542,-1.129 -6.799,-1.82 l 0.26,-0.571 c 1.307,-4.435 9.138,-30.152 8.413,-32.516 -0.208,-0.682 -1.462,-1.219 -2.072,-1.46 -13.74,-5.439 -44.432,-5.085 -57.876,0.936 2.494,10.489 5.201,21.041 7.418,31.588 l 0.092,2.514 c -2.045,0.857 -4.167,1.522 -6.268,2.226 -0.476,-1.193 -0.752,-2.488 -1.087,-3.729 z"
         id="path33" /><path
         fill="#fdfdfd"
         d="m 292.04105,192.06133 c 13.444,-6.021 44.136,-6.375 57.876,-0.936 0.61,0.241 1.864,0.778 2.072,1.46 0.725,2.364 -7.106,28.081 -8.413,32.516 l -0.26,0.571 c -4.024,-1.417 -8.504,-1.799 -12.71,-2.39 q -2.256,-0.138 -4.508,-0.322 c -2.349,0.134 -4.719,0.025 -7.07,-0.024 -2.108,0.011 -4.144,0.204 -6.235,0.458 -2.027,0.596 -4.147,0.747 -6.239,0.979 -0.158,-1.16 -0.438,-2.262 -0.732,-3.395 -2.542,0.451 -4.215,1.18 -6.363,2.671 -2.217,-10.547 -4.924,-21.099 -7.418,-31.588 z"
         id="path34" /><path
         fill="#3698ee"
         d="m 305.08905,213.92833 c 1.933,-0.209 3.879,-0.246 5.822,-0.313 0.302,1.546 0.548,3.034 0.644,4.612 0.165,1.499 0.125,3.656 0.909,4.946 l 0.329,0.221 c -2.027,0.596 -4.147,0.747 -6.239,0.979 -0.158,-1.16 -0.438,-2.262 -0.732,-3.395 -0.523,-2.327 -0.601,-4.678 -0.733,-7.05 z"
         id="path37" /><path
         fill="#3698ee"
         d="m 335.85805,209.36433 7.098,0.888 -0.009,0.436 c -0.11,3.948 -2.136,8.498 -1.635,12.299 l 0.318,0.206 c 0.888,0.589 1.411,0.984 1.946,1.908 l -0.26,0.571 c -4.024,-1.417 -8.504,-1.799 -12.71,-2.39 0.88,0.02 1.721,0.014 2.597,-0.076 0.714,-0.749 0.64,-1.42 0.799,-2.426 0.723,-3.736 1.526,-7.624 1.856,-11.416 z"
         id="path38" /><path
         fill="#3698ee"
         d="m 318.97105,200.72633 c 2.652,-0.011 5.291,-0.029 7.939,0.161 q -0.013,4.916 -0.29,9.825 c -0.707,3.876 -0.437,8.296 -0.522,12.248 -2.349,0.134 -4.719,0.025 -7.07,-0.024 0.116,-7.369 0.258,-14.847 -0.057,-22.21 z"
         id="path39" /><path
         fill="#11315e"
         d="m 466.87805,120.02133 c 2.191,0.921 9.427,9.066 11.506,11.3 2.782,-1.168 5.703,-2.07 8.716,-2.366 5.45,-0.534 10.594,1.169 14.761,4.698 4.147,3.512 6.687,8.26 7.107,13.688 1.379,17.843 -12.48,19.908 -22.981,29.36 -4.752,4.277 -9.163,8.869 -13.711,13.355 -4.76,4.694 -9.692,9.289 -14.045,14.367 -0.902,16.567 -0.05,33.328 -0.398,49.924 1.708,1.409 3.131,2.799 4.205,4.766 0.886,1.623 1.241,3.416 0.674,5.207 -0.648,2.045 -2.322,3.75 -4.214,4.698 -2.167,1.085 -4.654,1.3 -6.951,0.512 -1.985,-0.68 -3.632,-2.03 -4.459,-3.986 -0.883,-2.09 -0.777,-4.875 0.118,-6.944 0.835,-1.93 2.208,-3.14 4.12,-3.924 -0.229,-10.365 -0.136,-20.76 -0.166,-31.128 -0.021,-7.13 -0.348,-14.424 0.192,-21.526 2.314,-3.699 6.298,-6.79 9.393,-9.859 q 6.476,-6.476 12.882,-13.021 c 4.412,-4.506 10.779,-11.95 15.268,-15.666 2.094,-1.733 5.077,-1.88 7.263,-3.601 2.411,-1.898 3.846,-5.108 4.179,-8.105 0.396,-3.569 -0.572,-7.455 -2.93,-10.213 q -0.336,-0.394 -0.711,-0.753 -0.374,-0.358 -0.783,-0.676 -0.409,-0.318 -0.848,-0.594 -0.44,-0.275 -0.905,-0.504 -0.464,-0.229 -0.95,-0.41 -0.486,-0.18 -0.987,-0.311 -0.502,-0.13 -1.014,-0.209 -0.512,-0.079 -1.03,-0.105 c -3.692,-0.208 -6.855,1.446 -9.555,3.803 -2.715,3.086 -2.423,7.16 -5.064,10.246 -12.16,14.207 -28.042,28.454 -41.474,41.773 0.564,2.143 0.862,4.279 0.252,6.46 -0.748,2.672 -2.933,4.926 -5.315,6.247 -2.652,1.47 -5.735,1.711 -8.606,0.748 -2.639,-0.884 -4.713,-2.845 -5.893,-5.35 -1.273,-2.703 -1.496,-5.881 -0.403,-8.68 0.978,-2.505 2.941,-4.604 5.437,-5.633 3.619,-1.493 7.301,-0.514 10.749,0.884 12.809,-12.577 25.345,-25.718 37.691,-38.752 1.015,-5.521 2.411,-9.699 5.705,-14.279 q -3.432,-3.179 -6.717,-6.509 -17.227,16.524 -34.035,33.474 c 10e-4,0.977 -0.012,1.956 -0.14,2.926 -0.307,2.332 -1.331,4.617 -3.304,5.988 -1.885,1.31 -4.715,1.892 -6.963,1.425 -2.141,-0.445 -3.9,-1.737 -5.023,-3.606 q -0.229,-0.377 -0.417,-0.776 -0.188,-0.399 -0.334,-0.815 -0.145,-0.416 -0.247,-0.845 -0.101,-0.429 -0.158,-0.866 -0.056,-0.438 -0.067,-0.879 -0.01,-0.44 0.025,-0.88 0.036,-0.439 0.116,-0.873 0.081,-0.433 0.207,-0.856 c 0.687,-2.316 2.3,-4.361 4.464,-5.458 2.697,-1.366 5.331,-1.064 8.077,-0.15 3.974,-3.388 7.616,-7.296 11.319,-10.979 l 15.192,-15.027 c 3.605,-3.626 7.154,-7.585 11.18,-10.735 z"
         id="path40" /><path
         fill="#e6eff6"
         d="m 422.61405,192.90933 c 0.825,-0.057 1.746,-0.121 2.558,0.047 1.134,0.235 2.182,0.909 2.81,1.888 0.578,0.9 0.734,2.01 0.495,3.046 -0.415,1.798 -1.591,2.857 -3.081,3.818 -0.627,0.021 -1.269,0.051 -1.895,-0.002 -1.183,-0.1 -2.346,-0.725 -3.097,-1.642 -0.764,-0.934 -1.019,-2.079 -0.802,-3.261 0.345,-1.881 1.505,-2.868 3.012,-3.894 z"
         id="path41" /><path
         fill="#1c7adb"
         d="m 398.78305,280.43433 c 4.819,-1.495 10.343,-1.976 15.318,-2.909 7.291,-1.367 14.687,-3.21 22.027,-4.175 0.932,-0.123 3.365,-0.52 4.113,-0.021 2.203,1.472 3.062,10.984 3.382,13.935 q 0.356,3.214 0.559,6.44 0.204,3.227 0.255,6.46 0.05,3.233 -0.052,6.465 -0.102,3.231 -0.357,6.454 -0.255,3.224 -0.662,6.431 -0.407,3.208 -0.965,6.392 -0.559,3.185 -1.267,6.34 -0.708,3.154 -1.565,6.272 c -0.928,3.34 -1.855,7.352 -4.003,10.122 -1.163,1.5 -2.762,2.503 -4.679,2.634 -3.308,0.226 -30.313,-11.444 -34.839,-13.754 -0.897,-0.942 -1.946,-1.525 -3.054,-2.177 9.325,-19.307 9.564,-34.235 5.789,-54.909 z"
         id="path42" /><path
         fill="#3698ee"
         d="m 429.10805,290.31033 c 1.688,-0.211 3.366,-0.259 5.064,-0.309 l 0.203,0.216 c 3.555,3.864 2.932,10.826 2.755,15.738 -0.236,6.557 -2.855,31.961 -7.083,35.892 -1.261,0.308 -2.316,0.049 -3.55,-0.296 -3.683,-1.031 -7.371,-2.89 -10.902,-4.365 -5.415,-2.261 -11.252,-4.332 -16.337,-7.268 0.949,-2.133 1.679,-4.373 2.384,-6.596 l 0.282,-0.676 c 1.191,-0.612 11.037,1.318 13.078,1.586 0.166,-1.938 0.548,-3.892 0.85,-5.816 -4.095,-0.699 -8.149,-1.654 -12.249,-2.353 l 0.62,-6.956 c 4.393,-0.276 8.86,-0.131 13.258,-0.026 0.02,-2.358 0.197,-4.708 0.353,-7.06 -4.549,-0.115 -9.114,-0.049 -13.665,-0.056 q -0.083,-3.975 -0.065,-7.95 c 7.811,-1.999 16.959,-2.714 25.004,-3.705 z"
         id="path43" /><path
         fill="#11315e"
         d="m 157.08205,128.00333 c 0.216,-0.022 0.433,-0.04 0.65,-0.052 8.041,-0.439 13.021,2.581 18.814,7.851 3.54,-2.44 6.496,-4.639 10.802,-5.452 1.435,0.353 2.587,0.801 3.825,1.63 3.46,2.315 6.414,5.665 9.325,8.621 q 6.184,6.385 12.534,12.604 c 1.62,-0.634 3.217,-1.133 4.968,-1.236 2.175,-0.129 4.31,0.385 5.937,1.9 1.576,1.467 2.477,3.66 2.562,5.797 q 0.017,0.45 -0.013,0.9 -0.03,0.45 -0.107,0.894 -0.077,0.444 -0.199,0.878 -0.122,0.434 -0.289,0.853 -0.167,0.419 -0.376,0.818 -0.209,0.399 -0.459,0.774 -0.25,0.376 -0.537,0.723 -0.287,0.347 -0.609,0.663 -0.31,0.308 -0.651,0.581 -0.34,0.274 -0.708,0.51 -0.368,0.235 -0.758,0.431 -0.391,0.195 -0.8,0.348 -0.409,0.153 -0.833,0.262 -0.423,0.109 -0.855,0.172 -0.432,0.063 -0.869,0.08 -0.436,0.017 -0.872,-0.012 c -2.322,-0.138 -4.93,-1.148 -6.464,-2.949 -1.947,-2.286 -1.932,-5.191 -1.714,-8.006 -3.117,-3.322 -18.256,-19.542 -21.411,-20.167 -2.673,-0.531 -7.136,3.677 -9.17,5.208 0.29,3.041 0.641,7.196 -0.328,10.125 -0.267,0.809 -0.837,1.354 -1.013,2.207 2.316,3.19 5.94,6.182 8.746,9.012 q 10.364,10.53 20.956,20.831 c 2.035,-0.922 4.015,-1.647 6.266,-1.849 2.77,-0.25 5.504,0.444 7.622,2.3 q 0.416,0.369 0.791,0.779 0.376,0.41 0.707,0.856 0.332,0.446 0.616,0.924 0.284,0.478 0.518,0.982 0.233,0.505 0.414,1.031 0.18,0.525 0.306,1.067 0.126,0.541 0.196,1.093 0.069,0.551 0.082,1.107 0.018,0.547 -0.021,1.092 -0.04,0.546 -0.135,1.085 -0.095,0.538 -0.246,1.064 -0.151,0.526 -0.355,1.034 -0.205,0.507 -0.461,0.99 -0.256,0.484 -0.56,0.938 -0.305,0.455 -0.655,0.875 -0.35,0.42 -0.742,0.802 c -1.961,1.891 -4.529,2.892 -7.255,2.779 -2.922,-0.121 -6.105,-1.427 -8.085,-3.611 -2.278,-2.511 -2.877,-5.595 -2.781,-8.877 -6.234,-6.76 -12.98,-13.055 -19.553,-19.483 -3.45,-3.307 -7.7,-6.743 -10.361,-10.728 -4.031,3.021 -7.914,5.164 -12.905,5.862 1.014,3.356 23.336,22.652 26.985,28.493 0.055,0.088 0.106,0.178 0.16,0.267 -0.264,19.449 -0.293,39.019 0.012,58.467 1.575,0.904 3.135,1.948 4.146,3.494 1.184,1.812 1.31,4.256 0.859,6.326 -0.378,1.732 -1.294,3.22 -2.812,4.169 -2.025,1.267 -4.811,1.56 -7.105,0.987 -2.314,-0.579 -4.438,-2.065 -5.638,-4.146 -0.916,-1.59 -1.267,-3.453 -0.67,-5.217 0.787,-2.327 2.943,-4.245 5.106,-5.252 q 0.06,-28.438 -0.241,-56.875 -11.21,-11.436 -22.704,-22.586 c -5.351,-5.188 -11.842,-10.409 -16.128,-16.529 -1.549,-2.211 -2.378,-4.487 -2.819,-7.138 -0.878,-5.282 0.226,-10.62 3.348,-14.987 3.44,-4.811 8.248,-7.45 14.014,-8.384 z"
         id="path44" /><path
         fill="#e6eff6"
         d="m 212.85505,188.61533 c 0.843,-0.023 1.728,-0.023 2.539,0.241 1.287,0.419 2.359,1.555 2.877,2.78 0.485,1.145 0.442,2.416 -0.07,3.546 -0.713,1.574 -1.735,2.014 -3.304,2.552 -0.368,-0.033 -0.737,-0.068 -1.102,-0.126 -1.486,-0.236 -3.039,-1.114 -3.854,-2.403 -0.568,-0.899 -0.692,-1.971 -0.435,-2.994 0.444,-1.768 1.894,-2.689 3.349,-3.596 z"
         id="path45" /><path
         fill="#fdfdfd"
         d="m 157.96105,136.74033 c 2.499,-0.157 4.675,-0.003 6.934,1.192 2.611,1.382 4.652,3.832 5.437,6.692 q 0.136,0.494 0.222,0.999 0.086,0.506 0.122,1.017 0.036,0.511 0.021,1.023 -0.015,0.512 -0.08,1.021 -0.065,0.508 -0.18,1.007 -0.115,0.5 -0.279,0.985 -0.164,0.486 -0.375,0.953 -0.211,0.467 -0.467,0.911 c -1.584,2.765 -4.095,4.438 -7.1,5.322 -2.811,0.518 -5.489,0.467 -8.044,-0.964 q -0.482,-0.276 -0.934,-0.6 -0.451,-0.325 -0.866,-0.695 -0.415,-0.369 -0.789,-0.78 -0.375,-0.411 -0.704,-0.858 -0.33,-0.447 -0.612,-0.927 -0.281,-0.479 -0.511,-0.985 -0.23,-0.505 -0.407,-1.033 -0.176,-0.527 -0.297,-1.069 c -0.677,-2.942 -0.157,-6.159 1.529,-8.677 1.817,-2.714 4.273,-3.922 7.38,-4.534 z"
         id="path46" /><path
         fill="#1c7adb"
         d="m 360.70505,226.99533 8.81,-18.574 c 1.584,-3.354 2.987,-6.923 4.88,-10.108 0.657,-1.105 1.555,-2.647 2.767,-3.211 1.794,-0.835 4.33,0.107 5.967,0.889 4.554,2.176 8.948,5.295 12.964,8.324 14.615,11.024 26.138,24.511 34.166,41.023 1.495,3.075 3.105,6.326 4.233,9.555 0.648,1.854 1.277,4.377 0.215,6.204 -1.747,3.004 -32.731,10.378 -38.334,12.766 -2.263,-3.862 -3.846,-8.214 -6.135,-12.135 -8.543,-14.63 -18.15,-21.433 -31.753,-30.425 0.988,-1.29 1.565,-2.831 2.22,-4.308 z"
         id="path47" /><path
         fill="#3698ee"
         d="m 380.93505,204.06933 c 0.616,0.201 0.465,0.123 0.957,0.371 16.637,8.381 29.615,22.878 39.133,38.65 1.826,3.026 4.225,6.635 5.292,9.995 0.233,0.734 0.468,1.825 0.043,2.519 -2.293,3.751 -22.816,8.594 -28.145,10.347 l -1.967,-3.942 c 4.654,-1.91 9.692,-3.827 13.908,-6.593 -0.683,-1.552 -1.524,-3.076 -2.282,-4.595 l -1.594,-2.499 q -6.79,3.726 -13.662,7.299 c -3.074,-4.385 -6.54,-8.505 -9.903,-12.671 4.538,-4.4 8.842,-9.046 13.259,-13.568 -1.558,-1.46 -3.004,-2.99 -4.44,-4.57 -1.796,2.193 -3.976,4.087 -5.991,6.075 -2.516,2.482 -4.931,5.065 -7.443,7.553 -3.679,-3.129 -7.792,-5.878 -11.697,-8.726 3.188,-6.271 10.073,-21.26 14.532,-25.645 z"
         id="path48" /><path
         fill="#11315e"
         d="m 202.83305,384.73533 c 2.728,2.439 5.677,6.727 8.155,9.587 3.843,4.435 8.089,8.535 12.416,12.494 q 1.335,1.213 2.699,2.393 1.364,1.18 2.757,2.327 1.392,1.146 2.812,2.259 1.42,1.112 2.866,2.19 1.446,1.078 2.918,2.12 1.472,1.043 2.969,2.049 1.497,1.006 3.018,1.976 1.521,0.97 3.065,1.903 1.544,0.932 3.11,1.827 1.566,0.895 3.153,1.752 1.587,0.856 3.195,1.674 1.608,0.818 3.235,1.597 1.627,0.779 3.272,1.518 1.645,0.739 3.308,1.438 1.663,0.698 3.342,1.357 1.68,0.658 3.374,1.276 1.695,0.617 3.404,1.193 1.71,0.576 3.432,1.111 1.723,0.534 3.458,1.027 1.735,0.493 3.482,0.943 1.747,0.45 3.504,0.858 1.757,0.408 3.523,0.773 1.766,0.366 3.541,0.688 1.775,0.322 3.557,0.601 1.782,0.279 3.57,0.515 1.788,0.236 3.582,0.428 1.793,0.192 3.591,0.341 1.797,0.149 3.598,0.254 1.801,0.105 3.603,0.167 1.803,0.061 3.607,0.079 1.803,0.018 3.607,-0.008 1.804,-0.026 3.606,-0.096 4.97,-0.223 9.913,-0.792 4.943,-0.57 9.834,-1.483 4.89,-0.914 9.705,-2.167 4.815,-1.253 9.531,-2.84 c 30.503,-10.029 52.576,-27.842 74.002,-51.287 5.962,5.105 11.346,11.053 16.916,16.591 7.488,7.446 15.197,14.708 22.547,22.285 0.943,-0.287 1.893,-0.568 2.874,-0.693 2.277,-0.29 4.932,0.199 6.715,1.718 1.803,1.535 2.712,3.964 2.786,6.291 0.078,2.462 -0.917,4.769 -2.663,6.488 -1.521,1.496 -3.574,2.47 -5.73,2.435 -2.436,-0.04 -4.808,-1.323 -6.463,-3.067 -2.092,-2.204 -2.542,-4.767 -2.399,-7.676 -11.186,-9.998 -21.722,-20.805 -32.367,-31.371 l -0.374,-0.236 c -1.102,0.415 -10.605,10.148 -12.7,12.009 -6.654,5.913 -13.591,11.778 -20.978,16.758 q -2.648,1.78 -5.367,3.451 -2.718,1.671 -5.503,3.231 -2.784,1.559 -5.629,3.003 -2.846,1.445 -5.747,2.773 -2.902,1.327 -5.855,2.536 -2.954,1.209 -5.954,2.296 -3,1.088 -6.042,2.052 -3.041,0.965 -6.12,1.805 -3.078,0.84 -6.188,1.554 -3.111,0.715 -6.247,1.302 -3.137,0.587 -6.295,1.046 -3.158,0.459 -6.331,0.789 -3.174,0.331 -6.359,0.532 -3.185,0.201 -6.375,0.272 -3.19,0.071 -6.381,0.013 -3.19,-0.059 -6.376,-0.247 -3.188,-0.187 -6.365,-0.504 -3.177,-0.318 -6.339,-0.767 -3.162,-0.448 -6.302,-1.026 -3.141,-0.578 -6.255,-1.285 -3.114,-0.706 -6.196,-1.541 -3.082,-0.834 -6.128,-1.794 -3.045,-0.961 -6.048,-2.045 -3.004,-1.085 -5.96,-2.293 -2.956,-1.208 -5.86,-2.536 -2.904,-1.328 -5.75,-2.775 -2.847,-1.446 -5.632,-3.009 -2.785,-1.562 -5.503,-3.238 -2.718,-1.676 -5.365,-3.462 -2.647,-1.786 -5.218,-3.68 -2.571,-1.894 -5.062,-3.891 -2.491,-1.998 -4.898,-4.097 c -6.95,-6.089 -13.121,-13.019 -19.239,-19.923 -11.142,10.537 -22.664,20.85 -33.501,31.69 0.063,1.447 0.117,2.829 -0.29,4.237 -0.702,2.429 -2.142,4.214 -4.395,5.37 -2.043,1.049 -4.404,1.512 -6.616,0.717 -2.092,-0.752 -3.698,-2.463 -4.614,-4.456 q -0.195,-0.421 -0.346,-0.86 -0.151,-0.438 -0.257,-0.89 -0.105,-0.452 -0.164,-0.912 -0.059,-0.46 -0.071,-0.924 -0.012,-0.464 0.024,-0.926 0.035,-0.463 0.118,-0.919 0.082,-0.457 0.21,-0.903 0.129,-0.446 0.302,-0.876 c 0.806,-2.038 2.271,-3.785 4.32,-4.644 2.727,-1.143 5.425,-0.536 8.015,0.569 12.285,-13.307 25.671,-25.784 38.676,-38.389 z"
         id="path49" /><path
         fill="#1c7adb"
         d="m 388.63705,342.81433 c 0.813,1.091 0.994,1.115 2.318,1.416 0.719,0.163 0.412,0.051 1.08,0.469 q 9.144,5.747 18.417,11.284 c 3.874,2.288 8.092,4.416 11.74,7.04 1.074,0.773 2.623,1.904 3.081,3.202 0.843,2.389 -0.886,5.675 -2.141,7.628 -2.942,4.579 -6.764,8.851 -10.484,12.822 -15.128,16.147 -32.852,26.259 -53.655,33.412 -5.216,1.793 -10.409,3.551 -15.819,4.678 q -2.525,0.526 -5.072,0.93 -2.547,0.404 -5.11,0.684 -2.564,0.281 -5.138,0.438 -2.574,0.158 -5.153,0.191 -2.578,0.033 -5.155,-0.058 -2.578,-0.091 -5.148,-0.306 -2.569,-0.215 -5.126,-0.553 -2.557,-0.338 -5.094,-0.799 c -3.136,-0.573 -6.822,-1.08 -9.536,-2.858 -1.005,-0.658 -2.094,-1.71 -2.355,-2.931 -0.279,-1.3 0.009,-2.92 0.248,-4.225 1.114,-6.071 3.052,-12.146 4.578,-18.134 1.279,-5.02 2.244,-10.354 3.869,-15.259 0.831,-2.113 1.1,-4.498 1.296,-6.747 2.554,0.518 5.796,0.895 8.16,1.994 3.578,0.598 7.185,1.025 10.816,1.092 q 3.92,-0.027 7.84,0.013 c 3.591,-0.126 7.294,-0.552 10.797,-1.361 1.365,-0.57 3.196,-0.718 4.664,-1.009 1.832,-0.435 3.623,-1.018 5.421,-1.575 2.253,-0.973 4.573,-1.827 6.856,-2.732 l 2.875,-1.305 c 2.743,-1.992 5.953,-3.496 8.777,-5.418 8.845,-6.021 15.747,-13.539 22.153,-22.023 z"
         id="path50" /><path
         fill="#fdfdfd"
         d="m 344.84905,381.68333 c 1.837,0.029 3.333,-1.01 5.081,-0.972 3.683,10.482 7.219,21.006 11.016,31.448 -2.256,0.999 -4.555,1.64 -6.942,2.251 -3.621,-10.701 -6.209,-21.823 -9.155,-32.727 z"
         id="path55" /><path
         fill="#fdfdfd"
         d="m 327.09405,378.23733 c 3.591,-0.126 7.294,-0.552 10.797,-1.361 -0.15,1.059 -0.34,2.12 -0.367,3.19 l 0.438,3.401 c 2.229,10.785 6.122,21.474 7.544,32.37 -11.014,4.101 -25.181,4.384 -36.692,2.915 -2.374,-0.302 -5.183,-0.54 -7.384,-1.548 -0.719,-0.329 -1.535,-0.885 -1.815,-1.66 -1.212,-3.35 5.44,-26.655 6.695,-31.823 l 0.838,-3.485 c 0.099,-0.742 0.201,-1.464 0.412,-2.184 0.213,-0.727 0.26,-0.582 0.878,-0.92 3.578,0.598 7.185,1.025 10.816,1.092 q 3.92,-0.027 7.84,0.013 z"
         id="path56" /><path
         fill="#3698ee"
         d="m 319.25405,378.22433 q 3.92,-0.027 7.84,0.013 c -0.945,0.267 -1.138,0.191 -1.698,1.038 0.048,0.708 0.064,1.434 0.178,2.134 0.162,4.042 -0.225,8.325 0.397,12.314 0.072,2.776 0.008,5.555 -0.032,8.331 -2.538,0.136 -5.042,0.016 -7.577,-0.112 -0.139,-5.559 0.076,-11.15 0.165,-16.711 l -0.064,-3.081 c -0.004,-1.305 0.387,-2.281 0.696,-3.524 0.033,-0.134 0.063,-0.268 0.095,-0.402 z"
         id="path61" /><path
         fill="#fdfdfd"
         d="m 392.26305,353.70833 c 7.525,4.666 17.413,9.901 24.031,15.58 -6.98,13.199 -20.374,23.526 -32.868,31.152 -4.11,2.509 -8.408,5.073 -13.037,6.485 -0.868,0.265 -1.753,0.451 -2.645,0.613 -4.117,-8.205 -7.624,-20.089 -11.045,-28.998 -0.329,-0.745 -0.719,-1.365 -0.491,-2.196 l 0.689,-0.351 c 1.986,-0.477 3.921,-1.825 5.139,-3.451 l 1.031,-0.613 c 1.263,0.402 1.813,1.631 2.529,2.702 2.992,4.718 5.89,9.497 9.279,13.944 2.024,-1.215 3.85,-2.477 5.693,-3.956 -3.151,-5.643 -7.755,-10.445 -10.712,-16.157 2.279,-1.338 4.335,-3.349 6.343,-5.067 2.007,-1.666 3.984,-3.224 5.817,-5.091 l 0.192,-0.87 c 3.596,0.103 4.635,-2.193 7.684,-3.054 z"
         id="path62" /><path
         fill="#3698ee"
         d="m 382.01605,358.30433 c 4.606,3.453 8.828,7.914 13.025,11.866 -1.726,1.695 -3.495,3.303 -5.33,4.879 -3.716,-3.265 -7.391,-6.608 -11.308,-9.629 l -2.204,-2.025 c 2.007,-1.666 3.984,-3.224 5.817,-5.091 z"
         id="path65" /><path
         fill="#1c7adb"
         d="m 288.53105,377.98933 c -1.574,4.594 -4.07,9.164 -6.086,13.609 -2.635,5.805 -5.034,12.133 -8.218,17.632 -0.706,1.219 -1.826,3.066 -3.13,3.7 -1.345,0.653 -2.826,0.461 -4.21,0.025 -4.026,-1.268 -8.14,-4.286 -11.644,-6.642 -17.297,-11.63 -31.829,-26.442 -41.622,-44.957 -4.532,-8.57 -7.605,-17.526 -9.932,-26.918 -5.718,-23.086 -5.521,-45.724 1.551,-68.501 1.17,-3.771 2.89,-9.377 6.715,-11.238 1.458,-0.71 2.726,-0.545 4.278,-0.253 4.268,0.803 8.626,2.813 12.702,4.313 q 9.472,3.409 18.905,6.925 l 3.663,1.289 c -0.976,2.437 -1.812,5.237 -3.071,7.52 -0.836,1.96 -1.494,4.193 -1.922,6.277 q -0.922,4.27 -1.623,8.581 c -0.26,2.351 -0.479,4.674 -0.546,7.039 l -0.123,3.499 c 0.008,2.732 0.17,5.421 0.377,8.143 q 0.545,3.677 1.028,7.362 l 0.935,4.457 1.867,5.761 1.558,3.993 c 1.853,3.504 3.445,7.145 5.421,10.583 6.096,10.598 14.836,18.751 24.955,25.429 3.41,2.25 7.409,3.831 10.688,6.19 -0.827,2.057 -1.6,4.164 -2.516,6.182 z"
         id="path66" /><path
         fill="#3698ee"
         d="m 245.39405,341.11933 c 0.369,-0.04 0.837,0.009 1.212,0.019 2.074,1.428 3.43,5.554 4.753,7.77 -4.077,3.113 -8.023,6.422 -12.012,9.65 2.02,2.213 4.042,4.386 6.21,6.457 3.947,-2.465 7.608,-5.331 11.199,-8.281 q 3.616,3.722 7.321,7.354 c -4.379,3.801 -8.846,7.548 -12.89,11.708 l 4.047,3.917 c 4.444,-3.097 9.046,-7.63 12.606,-11.705 4.291,3.233 10.149,5.47 13.881,9.245 -0.61,2.838 -1.8,5.115 -3.239,7.61 -2.182,3.764 -7.994,15.812 -10.888,17.972 -0.627,0.468 -1.07,0.579 -1.848,0.446 -2.358,-0.404 -5.001,-2.382 -6.996,-3.651 q -2.429,-1.573 -4.776,-3.266 -2.348,-1.693 -4.607,-3.502 -2.259,-1.808 -4.426,-3.727 -2.166,-1.92 -4.233,-3.945 -2.067,-2.025 -4.03,-4.152 -1.963,-2.126 -3.817,-4.348 -1.854,-2.222 -3.595,-4.534 -1.74,-2.313 -3.363,-4.709 c -1.952,-2.92 -8.284,-12.779 -7.582,-16.291 3.032,-2.625 22.182,-8.581 27.073,-10.037 z"
         id="path67" /><path
         fill="#fdfdfd"
         d="m 213.88805,341.54133 c -0.059,-0.096 -0.121,-0.19 -0.177,-0.288 -2.141,-3.758 -3.073,-8.369 -3.993,-12.568 q -0.4,-1.808 -0.741,-3.628 -0.342,-1.819 -0.625,-3.649 -0.284,-1.83 -0.508,-3.668 -0.225,-1.837 -0.39,-3.681 -0.166,-1.845 -0.273,-3.693 -0.106,-1.848 -0.154,-3.699 -0.047,-1.851 -0.035,-3.703 0.012,-1.851 0.083,-3.701 0.071,-1.85 0.201,-3.697 0.131,-1.847 0.32,-3.689 0.189,-1.842 0.438,-3.677 0.248,-1.835 0.554,-3.661 0.307,-1.825 0.672,-3.641 0.365,-1.815 0.788,-3.617 0.423,-1.803 0.903,-3.591 0.481,-1.788 1.018,-3.56 c 0.585,-1.996 1.357,-6.067 3.24,-7.097 5.031,-0.154 22.953,7.977 29.343,9.85 l 0.319,0.091 c 1.232,0.432 2.387,0.951 3.561,1.519 -0.836,1.96 -1.494,4.193 -1.922,6.277 q -0.922,4.27 -1.623,8.581 c -0.26,2.351 -0.479,4.674 -0.546,7.039 l -0.123,3.499 c 0.008,2.732 0.17,5.421 0.377,8.143 q 0.545,3.677 1.028,7.362 l 0.935,4.457 1.867,5.761 1.558,3.993 c -1.285,0.773 -2.571,1.651 -3.923,2.295 -2.943,1.118 -5.952,2.006 -8.964,2.913 -7.43,2.556 -15.368,5.98 -23.208,6.728 z"
         id="path68" /><path
         fill="#3698ee"
         d="m 226.36105,276.82233 c 5.33,0.539 10.732,2.017 15.969,3.148 1.385,0.376 2.764,0.591 4.18,0.8 q -0.922,4.27 -1.623,8.581 c -0.26,2.351 -0.479,4.674 -0.546,7.039 -0.129,0.103 -0.315,0.099 -0.476,0.134 -0.024,-0.854 0.119,-1.033 -0.425,-1.732 -1.336,-0.492 -2.625,-0.528 -4.029,-0.613 l -1.798,0.042 c 0.518,-2.858 0.492,-5.339 0.139,-8.217 -4.077,-0.785 -8.117,-1.595 -12.113,-2.732 0.009,-2.219 0.3,-4.275 0.722,-6.45 z"
         id="path70" /><path
         fill="#3698ee"
         d="m 246.55805,319.85133 1.867,5.761 1.558,3.993 c -1.285,0.773 -2.571,1.651 -3.923,2.295 -2.943,1.118 -5.952,2.006 -8.964,2.913 0.268,-0.853 0.547,-1.698 0.851,-2.539 -0.29,-1.068 -0.695,-1.236 -1.522,-1.939 -1.615,0.474 -3.221,0.954 -4.866,1.316 l -3.722,0.905 c -0.657,-1.889 -1.096,-3.901 -1.608,-5.835 3.781,-1.77 7.943,-2.62 11.977,-3.62 q 2.446,-0.639 4.903,-1.23 c 1.323,-0.182 2.428,-1.224 3.449,-2.02 z"
         id="path73" /><path
         fill="#3698ee"
         d="m 237.61305,294.22133 1.798,-0.042 c 1.404,0.085 2.693,0.121 4.029,0.613 0.544,0.699 0.401,0.878 0.425,1.732 0.161,-0.035 0.347,-0.031 0.476,-0.134 l -0.123,3.499 c 0.008,2.732 0.17,5.421 0.377,8.143 -0.883,0.581 -1.948,0.464 -2.968,0.489 -1.412,0.121 -2.87,0.333 -4.285,0.351 0.041,-0.111 0.102,-0.218 0.124,-0.335 0.281,-1.507 -0.556,-5.846 -1.481,-6.953 l -3.199,-0.245 c -2.861,0.012 -5.699,-0.05 -8.519,-0.557 -0.197,-2.228 0.05,-4.386 0.271,-6.604 4.358,-0.022 8.716,0.075 13.075,0.043 z"
         id="path76" /><path
         fill="#3698ee"
         d="m 244.59505,308.03233 q 0.545,3.677 1.028,7.362 l 0.935,4.457 c -1.021,0.796 -2.126,1.838 -3.449,2.02 q -2.457,0.591 -4.903,1.23 -0.011,-1.1 -0.037,-2.2 c -0.017,-1.093 0.12,-2.433 -0.626,-3.339 -0.662,-0.804 -1.641,-0.57 -2.581,-0.59 -6.149,0.563 -12.367,1.197 -18.541,1.296 -0.521,-2.391 -0.615,-4.644 -0.449,-7.078 7.096,-0.927 14.261,-1.447 21.37,-2.318 1.415,-0.018 2.873,-0.23 4.285,-0.351 1.02,-0.025 2.085,0.092 2.968,-0.489 z"
         id="path79" /><path
         style="font-variation-settings:normal;opacity:1;vector-effect:none;fill:#11315e;fill-opacity:1;fill-rule:evenodd;stroke:none;stroke-width:0.470588;stroke-linecap:butt;stroke-linejoin:miter;stroke-miterlimit:4;stroke-dasharray:none;stroke-dashoffset:0;stroke-opacity:1;-inkscape-stroke:none;stop-color:#000000;stop-opacity:1"
         id="path314"
         sodipodi:type="arc"
         sodipodi:cx="322.84326"
         sodipodi:cy="299.79898"
         sodipodi:rx="80"
         sodipodi:ry="80"
         sodipodi:start="0.29952091"
         sodipodi:end="0.29947701"
         sodipodi:open="true"
         sodipodi:arc-type="arc"
         d="m 399.2815,323.40398 a 80,80 0 0 1 -100.0424,52.8335 80,80 0 0 1 -52.83459,-100.04182 80,80 0 0 1 100.04123,-52.83569 80,80 0 0 1 52.83679,100.04065" /><path
         fill="#fdfdfd"
         d="m 317.20305,233.36233 c 17.07,-1.648 33.41,3.606 46.893,14.005 14.219,10.969 23.714,26.573 25.913,44.488 q 0.213,1.634 0.344,3.276 0.131,1.642 0.179,3.289 0.049,1.647 0.015,3.294 -0.034,1.647 -0.151,3.29 -0.116,1.643 -0.315,3.279 -0.198,1.635 -0.479,3.259 -0.28,1.623 -0.642,3.231 -0.361,1.607 -0.802,3.194 -0.442,1.587 -0.962,3.151 -0.521,1.563 -1.119,3.098 -0.598,1.535 -1.272,3.038 -0.674,1.503 -1.423,2.971 -0.748,1.467 -1.569,2.895 -0.822,1.429 -1.713,2.814 -0.892,1.385 -1.852,2.724 -0.96,1.339 -1.986,2.628 c -11.846,15.017 -29.076,24.103 -47.988,26.285 -17.468,1.877 -34.463,-3.825 -48.107,-14.736 q -1.305,-1.049 -2.557,-2.16 -1.253,-1.111 -2.449,-2.282 -1.197,-1.171 -2.335,-2.399 -1.138,-1.228 -2.215,-2.51 -1.077,-1.281 -2.09,-2.614 -1.013,-1.333 -1.96,-2.714 -0.947,-1.381 -1.826,-2.806 -0.878,-1.425 -1.686,-2.892 -0.808,-1.466 -1.543,-2.97 -0.735,-1.504 -1.397,-3.043 -0.661,-1.538 -1.246,-3.106 -0.585,-1.569 -1.094,-3.164 -0.508,-1.595 -0.937,-3.213 -0.43,-1.619 -0.78,-3.256 -0.351,-1.637 -0.621,-3.289 -0.27,-1.653 -0.459,-3.316 c -1.964,-18.018 3.419,-34.994 14.856,-48.993 12.077,-14.784 28.497,-22.858 47.375,-24.746 z"
         id="path85" /><path
         fill="#1c7adb"
         d="m 317.70405,238.99433 c 16.182,-1.531 32.115,4.177 44.619,14.362 12.34,10.05 20.811,25.436 22.313,41.299 1.537,16.246 -3.707,32.005 -14.15,44.489 q -0.99,1.2 -2.037,2.35 -1.048,1.15 -2.15,2.247 -1.103,1.097 -2.259,2.138 -1.155,1.042 -2.36,2.025 -1.205,0.984 -2.457,1.907 -1.252,0.923 -2.548,1.783 -1.296,0.86 -2.633,1.656 -1.336,0.795 -2.71,1.524 -1.374,0.729 -2.783,1.39 -1.408,0.66 -2.847,1.251 -1.439,0.59 -2.905,1.109 -1.467,0.519 -2.957,0.966 -1.49,0.446 -3,0.818 -1.51,0.373 -3.037,0.671 -1.526,0.298 -3.066,0.52 -1.539,0.223 -3.088,0.369 c -16.14,1.155 -31.399,-3.423 -44.072,-13.618 -12.884,-10.367 -20.901,-26.121 -22.675,-42.462 -1.714,-15.786 3.288,-31.376 13.263,-43.694 10.803,-13.341 26.549,-21.355 43.539,-23.1 z"
         id="path86" /><path
         fill="#fdfdfd"
         d="m 319.66205,261.17133 c 9.507,-0.636 19.023,1.885 26.713,7.609 8.16,6.075 13.85,15.75 15.263,25.822 q 0.146,0.982 0.244,1.969 0.097,0.988 0.146,1.979 0.048,0.991 0.047,1.984 -10e-4,0.992 -0.051,1.983 -0.05,0.992 -0.15,1.979 -0.099,0.987 -0.247,1.969 -0.148,0.981 -0.345,1.954 -0.197,0.972 -0.442,1.934 -0.245,0.962 -0.537,1.91 -0.292,0.949 -0.631,1.882 -0.339,0.932 -0.724,1.847 -0.385,0.915 -0.815,1.809 -0.429,0.895 -0.903,1.767 -0.474,0.872 -0.99,1.72 -0.517,0.847 -1.074,1.668 -0.558,0.821 -1.156,1.613 c -6.692,8.87 -16.342,13.67 -27.183,15.167 -10.632,0.486 -19.441,-1.201 -28.135,-7.762 -8.08,-6.097 -13.456,-15.938 -14.795,-25.916 -1.418,-10.576 1.201,-21.043 7.76,-29.5 6.889,-8.882 16.955,-14.014 28.005,-15.387 z"
         id="path87" /></g></g></svg>
