<?xml version="1.0" encoding="UTF-8" standalone="no"?>

<svg
   xmlns:dc="http://purl.org/dc/elements/1.1/"
   xmlns:cc="http://creativecommons.org/ns#"
   xmlns:rdf="http://www.w3.org/1999/02/22-rdf-syntax-ns#"
   xmlns:svg="http://www.w3.org/2000/svg"
   xmlns="http://www.w3.org/2000/svg"
   xmlns:sodipodi="http://sodipodi.sourceforge.net/DTD/sodipodi-0.dtd"
   xmlns:inkscape="http://www.inkscape.org/namespaces/inkscape"
   version="1.0"
   width="600"
   height="600"
   id="svg2">
  <metadata
     id="metadata12">
    <rdf:RDF>
      <cc:Work
         rdf:about="">
        <dc:format>image/svg+xml</dc:format>
        <dc:type
           rdf:resource="http://purl.org/dc/dcmitype/StillImage" />
        <dc:title></dc:title>
      </cc:Work>
    </rdf:RDF>
  </metadata>
  <sodipodi:namedview
     guidetolerance="10.0"
     gridtolerance="10.0"
     objecttolerance="10.0"
     borderopacity="1.0"
     bordercolor="#666666"
     pagecolor="#ffffff"
     id="base"
     width="200px"
     height="200px"
     showgrid="false" />
  <defs
     id="defs4" />
  <g
     id="g1882"
     transform="matrix(2.9999992,0,0,2.9999992,-776.09446,52.48768)" />
  <g
     id="g2461"
     transform="matrix(2.9999992,0,0,2.9999992,-471.70576,24.4905)" />
  <path
     d="m 600.00001,300 c 0.0277,165.67729 -134.29498,300 -300,300 C 134.29497,600 -0.02772571,465.67729 4.2927282e-6,300 -0.02769571,134.3227 134.29497,0 300.00001,0 c 165.70502,0 300.02773,134.3227 300,300 l 0,0 z"
     style="fill:#000000;fill-opacity:1;fill-rule:evenodd;stroke:none"
     id="path2683" />
  <path
     d="m 596.99995,299.94978 c 0,164.02853 -132.97139,296.99993 -296.99993,296.99993 -164.02854,0 -296.9999357,-132.9714 -296.9999357,-296.99993 0,-164.02854 132.9713957,-296.99994 296.9999357,-296.99994 164.02854,0 296.99993,132.9714 296.99993,296.99994 l 0,0 z"
     style="fill:#ffffff;fill-opacity:1;fill-rule:evenodd;stroke:none"
     id="path2685" />
  <path
     style="fill:#00408b;fill-opacity:1;fill-rule:evenodd;stroke:none"
     d="m 300.00001,8.94985 c -160.71485,0 -290.9999157,130.28507 -290.9999157,290.99992 0,160.71485 130.2850757,290.99989 290.9999157,290.99992 160.71485,0 290.99989,-130.28507 290.99992,-290.99992 0,-160.71486 -130.28507,-290.99992 -290.99992,-290.99992 z"
     id="path1877"
     sodipodi:nodetypes="cssss" />
  <g
     id="g3707"
     transform="translate(870.29689,35.54352)">
    <path
       id="path2832"
       d="m -570.28125,204.46875 c -58.73812,0 -132.53186,4.49681 -167.71875,7.90625 -17.95691,1.73993 -34.86719,16.14881 -31.96875,37.03125 2.14206,15.43292 4.28868,30.84928 6.4375,46.28125 0.55894,4.01405 3.83771,6.3125 7.5625,6.3125 l 371.34375,0 c 3.72478,0 7.03716,-2.29813 7.59375,-6.3125 2.13961,-15.43165 4.26441,-30.84991 6.40625,-46.28125 2.89844,-20.88244 -14.01185,-35.29132 -31.96875,-37.03125 -35.1869,-3.40944 -108.94938,-7.90625 -167.6875,-7.90625 z m -162.25,16.34375 c 15.33874,0 27.78125,12.44251 27.78125,27.78125 0,15.33875 -12.44251,27.78125 -27.78125,27.78125 -15.33875,0 -27.78125,-12.4425 -27.78125,-27.78125 0,-15.33874 12.4425,-27.78125 27.78125,-27.78125 z m 324.5,0 c 15.33875,0 27.75,12.44251 27.75,27.78125 0,15.33875 -12.41125,27.78125 -27.75,27.78125 -15.33874,0 -27.78125,-12.4425 -27.78125,-27.78125 0,-15.33874 12.44251,-27.78125 27.78125,-27.78125 z m -162.25,25.3125 c 32.41718,0 69.33859,0.94215 102.65625,2.8125 7.9113,0.44411 15.35675,3.55131 18.90625,11.21875 l 11.25,24.3125 c 1.73737,3.75295 0.38611,9.01756 -8.09375,9.34375 -39.74276,1.52881 -82.25167,1.875 -124.71875,1.875 -42.46708,0 -84.97599,-0.34619 -124.71875,-1.875 -8.47986,-0.32619 -9.86237,-5.5908 -8.125,-9.34375 l 11.28125,-24.3125 c 3.5495,-7.66744 10.9637,-10.77464 18.875,-11.21875 33.31766,-1.87035 70.27032,-2.8125 102.6875,-2.8125 z m -162.25,35.25 c 4.74771,0 8.59375,3.84604 8.59375,8.59375 0,4.74772 -3.84604,8.59375 -8.59375,8.59375 -4.74772,0 -8.59375,-3.84603 -8.59375,-8.59375 0,-4.74771 3.84603,-8.59375 8.59375,-8.59375 z m 324.5,0 c 4.74771,0 8.59375,3.84604 8.59375,8.59375 0,4.74772 -3.84604,8.59375 -8.59375,8.59375 -4.74771,0 -8.625,-3.84603 -8.625,-8.59375 0,-4.74771 3.87729,-8.59375 8.625,-8.59375 z"
       style="fill:#ffffff;stroke:none" />
    <path
       id="path3628"
       d="m -573.9375,119.40625 c -29.80289,0 -82.36481,2.79428 -97.65625,3.75 -18.23113,1.13943 -33.12428,10.35585 -39.875,26.03125 L -736,206.15625 c 4.53102,-0.42425 9.5898,-0.87059 15.125,-1.3125 l 21.6875,-50.375 c 4.82444,-11.20252 13.86033,-17.05768 28.4375,-17.96875 14.63412,-0.91464 62.94208,-3.71875 96.8125,-3.71875 33.87042,0 82.17838,2.80411 96.8125,3.71875 14.57717,0.91107 23.61306,6.76623 28.4375,17.96875 l 21.4375,49.8125 c 5.40298,0.40494 10.41961,0.7892 15.0625,1.1875 l -24.21875,-56.28125 c -6.75072,-15.6754 -21.64387,-24.89182 -39.875,-26.03125 -15.29144,-0.95572 -67.85336,-3.75 -97.65625,-3.75 z m 152.09375,97.4375 0.375,0.90625 c 0.59838,-0.26219 1.19707,-0.52174 1.8125,-0.75 -0.68106,-0.0555 -1.49213,-0.10059 -2.1875,-0.15625 z"
       style="font-size:medium;font-style:normal;font-variant:normal;font-weight:normal;font-stretch:normal;text-indent:0;text-align:start;text-decoration:none;line-height:normal;letter-spacing:normal;word-spacing:normal;text-transform:none;direction:ltr;block-progression:tb;writing-mode:lr-tb;text-anchor:start;color:#000000;fill:#ffffff;fill-opacity:1;stroke:none;stroke-width:13.36642933;marker:none;visibility:visible;display:inline;overflow:visible;enable-background:accumulate;font-family:Bitstream Vera Sans;-inkscape-font-specification:Bitstream Vera Sans" />
    <rect
       rx="3.3416073"
       ry="3.3416073"
       y="307.98694"
       x="-766.10132"
       height="17.768309"
       width="390.90274"
       id="rect3630"
       style="fill:#ffffff;fill-opacity:1;stroke:none" />
    <path
       id="rect3632"
       d="m -749.375,331.75 0,67.65625 c 0,5.55375 4.47749,10 10.03125,10 l 14.53125,0 c 5.55375,0 10.03125,-4.44625 10.03125,-10 l 0,-56.46875 c 30.66741,1.87827 94.45781,5.375 144.5,5.375 50.04216,0 113.80134,-3.49673 144.46875,-5.375 l 0,56.46875 c 0,5.55375 4.4775,10 10.03125,10 l 14.5625,0 c 5.55376,0 10,-4.44625 10,-10 l 0,-67.65625 -358.15625,0 z"
       style="fill:#ffffff;fill-opacity:1;stroke:none" />
  </g>
</svg>
