<?xml version="1.0" standalone="no"?>
<!DOCTYPE svg PUBLIC "-//W3C//DTD SVG 1.1//EN"
  "http://www.w3.org/Graphics/SVG/1.1/DTD/svg11.dtd">
<svg width="72mm" height="81.99999999999999mm" viewBox="-32 -22.999999999999996 72 81.99999999999999" xmlns="http://www.w3.org/2000/svg" version="1.1">
	<title>svgOutput</title>
	<desc>made with tinkercad</desc>
<path d="M 39 57.999999999999986 L 38.9119987487793 57.999999999999986 L 37.88800048828125 57.999999999999986 L 36.86399841308594 57.999999999999986 L 35.84000015258789 57.999999999999986 L 34.816001892089844 57.999999999999986 L 32.768001556396484 57.999999999999986 L 24.576000213623047 57.999999999999986 L 16.384000778198242 57.999999999999986 L 8.192000389099121 57.999999999999986 L 0 57.999999999999986 L -8.192000389099121 57.999999999999986 L -16.384000778198242 57.999999999999986 L -24.576000213623047 57.999999999999986 L -31 57.999999999999986 L -31 57.34400177001952 L -31 53.2480010986328 L -31 49.15200042724608 L -31 45.05599975585937 L -31 40.95999908447265 L -31 32.76800155639648 L -31 16.38400077819824 L -31 1.1102230246251565e-16 L -31 -21.999999999999996 L -26 -21.999999999999996 L -16.384000778198242 -21.999999999999996 L 0 -21.999999999999996 L 16.384000778198242 -21.999999999999996 L 32.768001556396484 -21.999999999999996 L 36.5 -21.999999999999996 L 39 -21.999999999999996 L 39 1.1102230246251565e-16 L 39 32.76800155639648 L 39 40.95999908447265 L 39 42.99999999999999 L 39 45.05599975585937 L 39 49.15200042724608 L 39 53.2480010986328 L 39 57.34400177001952 L 39 57.999999999999986 z" fill="none" stroke="rgb(255,0,0)" stroke-width="0.001mm" />
</svg>